<?xml version="1.0" encoding="UTF-8" standalone="no"?>
<svg
   width="493"
   height="58"
   id="svg2"
   version="1.1"
   inkscape:version="1.3.2 (1:1.3.2+202311252150+091e20ef0f)"
   sodipodi:docname="banner.svg"
   inkscape:output_extension="org.inkscape.output.svg.inkscape"
   inkscape:export-filename="banner.png"
   inkscape:export-xdpi="96"
   inkscape:export-ydpi="96"
   xmlns:inkscape="http://www.inkscape.org/namespaces/inkscape"
   xmlns:sodipodi="http://sodipodi.sourceforge.net/DTD/sodipodi-0.dtd"
   xmlns="http://www.w3.org/2000/svg"
   xmlns:svg="http://www.w3.org/2000/svg"
   xmlns:rdf="http://www.w3.org/1999/02/22-rdf-syntax-ns#"
   xmlns:cc="http://creativecommons.org/ns#"
   xmlns:dc="http://purl.org/dc/elements/1.1/">
  <defs
     id="defs4" />
  <sodipodi:namedview
     id="base"
     pagecolor="#ffffff"
     bordercolor="#666666"
     borderopacity="1.0"
     inkscape:pageopacity="0.0"
     inkscape:pageshadow="2"
     inkscape:zoom="2"
     inkscape:cx="312.25"
     inkscape:cy="-105.25"
     inkscape:document-units="px"
     inkscape:current-layer="layer1"
     showgrid="false"
     inkscape:window-width="1280"
     inkscape:window-height="1295"
     inkscape:window-x="20"
     inkscape:window-y="20"
     inkscape:window-maximized="0"
     fit-margin-top="0"
     fit-margin-left="0"
     fit-margin-right="0"
     fit-margin-bottom="0"
     inkscape:document-rotation="0"
     inkscape:snap-center="true"
     inkscape:snap-bbox="true"
     inkscape:snap-bbox-midpoints="true"
     inkscape:snap-nodes="true"
     inkscape:bbox-paths="true"
     inkscape:showpageshadow="2"
     inkscape:pagecheckerboard="0"
     inkscape:deskcolor="#d1d1d1" />
  <metadata
     id="metadata7">
    <rdf:RDF>
      <cc:Work
         rdf:about="">
        <dc:format>image/svg+xml</dc:format>
        <dc:type
           rdf:resource="http://purl.org/dc/dcmitype/StillImage" />
        <dc:title />
      </cc:Work>
    </rdf:RDF>
  </metadata>
  <g
     inkscape:label="Layer 1"
     inkscape:groupmode="layer"
     id="layer1"
     transform="translate(0,-994.36218)">
    <rect
       style="fill:#ffffff;fill-opacity:1;stroke:none"
       id="rect2830"
       width="493"
       height="58"
       x="-0.36694327"
       y="994.3913" />
    <path
       style="font-variation-settings:normal;opacity:1;vector-effect:none;fill:#06263f;fill-opacity:1;stroke-width:7.63495;stroke-linecap:round;stroke-linejoin:round;stroke-miterlimit:4;stroke-dasharray:none;stroke-dashoffset:0;stroke-opacity:1;-inkscape-stroke:none;stop-color:#000000;stop-opacity:1"
       d="m 462.98434,1042.1551 -0.20051,-0.029 -0.18374,-0.051 -0.18373,-0.051 -0.17015,-0.082 -0.17015,-0.082 -0.15537,-0.152 -0.15538,-0.1521 -0.0635,-0.1297 -0.0635,-0.1298 -0.0606,-0.2651 -0.0606,-0.2651 -0.0535,-0.154 -0.0535,-0.154 -0.0686,-0.1436 -0.0686,-0.1436 -0.10458,-0.1544 -0.10457,-0.1542 -0.14475,-0.1415 -0.14474,-0.1414 -0.13959,-0.092 -0.13959,-0.092 -0.14156,-0.07 -0.14157,-0.07 -0.17965,-0.063 -0.17965,-0.063 -0.23493,-0.058 -0.23495,-0.058 -0.45503,-0.083 -0.45504,-0.082 -0.21235,-0.049 -0.21235,-0.049 -0.16179,-0.053 -0.16179,-0.053 -0.13111,-0.058 -0.13109,-0.058 -0.16502,-0.1084 -0.16502,-0.1083 -0.1065,-0.115 -0.10651,-0.1148 -0.0558,-0.1164 -0.0558,-0.1163 -0.0135,-0.097 -0.0135,-0.097 0.0236,-0.1161 0.0236,-0.1161 0.0691,-0.1397 0.0691,-0.1397 0.1308,-0.1719 0.13081,-0.172 0.35967,-0.3733 0.35967,-0.3733 0.17424,-0.2004 0.17423,-0.2003 0.0803,-0.1325 0.0803,-0.1326 0.0427,-0.113 0.0428,-0.1131 0.0132,-0.098 0.0132,-0.098 -0.0331,-0.1276 -0.0332,-0.1278 -0.0617,-0.095 -0.0618,-0.095 -0.12465,-0.1139 -0.12464,-0.1139 -0.16898,-0.1088 -0.16897,-0.1087 -0.26584,-0.1334 -0.26584,-0.1335 -0.30046,-0.1247 -0.30047,-0.1248 -0.37703,-0.1406 -0.37703,-0.1407 -1.84037,-0.6038 -1.84037,-0.6037 -0.44493,-0.1649 -0.44492,-0.1649 -0.32359,-0.1382 -0.32358,-0.1382 -0.23257,-0.1203 -0.23258,-0.1203 -0.1718,-0.1127 -0.1718,-0.1126 -0.12388,-0.1222 -0.12388,-0.1223 -0.035,-0.1039 -0.035,-0.1039 0.0138,-0.074 0.0138,-0.074 0.0529,-0.096 0.0529,-0.096 0.12232,-0.1118 0.1223,-0.1118 0.16179,-0.104 0.1618,-0.1038 0.2242,-0.1216 0.22419,-0.1216 0.74999,-0.348 0.75,-0.348 0.22913,-0.1245 0.22913,-0.1245 0.16907,-0.1105 0.16907,-0.1106 0.12071,-0.1173 0.12072,-0.1172 0.0487,-0.1034 0.0487,-0.1034 2e-4,-0.076 2e-4,-0.076 -0.0309,-0.073 -0.0309,-0.073 -0.049,-0.064 -0.049,-0.064 -0.21833,-0.094 -0.21835,-0.094 -0.23949,-0.088 -0.23948,-0.088 -0.36723,-0.1098 -0.36723,-0.11 -0.64716,-0.1575 -0.64716,-0.1577 -0.75217,-0.1719 -0.75216,-0.1719 -0.37244,-0.098 -0.37244,-0.098 -0.30118,-0.092 -0.30117,-0.092 -0.29325,-0.1107 -0.29325,-0.1106 -0.24593,-0.1188 -0.24594,-0.1188 -0.21323,-0.1369 -0.21323,-0.137 -0.17532,-0.166 -0.17533,-0.166 -0.088,-0.1215 -0.088,-0.1216 -0.0707,-0.1479 -0.0707,-0.1479 -0.0329,-0.1197 -0.0329,-0.1198 -0.0104,-0.2494 -0.0104,-0.2495 0.0334,-0.1895 0.0334,-0.1895 0.0839,-0.2496 0.0839,-0.2495 0.1678,-0.3315 0.1678,-0.3315 0.26175,-0.387 0.26174,-0.387 0.17368,-0.2196 0.17368,-0.2194 7.05151,-7.1214 7.05151,-7.1212 0.18357,-0.1457 0.18358,-0.1457 0.17236,-0.1109 0.17236,-0.1109 0.19781,-0.1003 0.1978,-0.1002 0.20586,-0.079 0.20586,-0.079 0.18197,-0.052 0.18197,-0.052 0.27303,-0.052 0.27302,-0.052 0.44674,-0.01 0.44674,-0.01 0.2712,0.034 0.27121,0.034 0.30714,0.077 0.30715,0.077 0.23515,0.091 0.23514,0.09 0.21895,0.1106 0.21894,0.1105 0.20951,0.1375 0.20951,0.1377 0.16029,0.1262 0.16029,0.1262 7.25832,7.3204 7.25831,7.3204 0.23375,0.2435 0.23373,0.2436 0.17111,0.2096 0.1711,0.2095 0.15227,0.2265 0.15228,0.2265 0.11748,0.2294 0.11748,0.2294 0.0724,0.2227 0.0724,0.2227 0.03,0.1996 0.03,0.1995 2.1e-4,0.1133 2e-4,0.1133 -0.0217,0.154 -0.0217,0.1538 -0.0498,0.1696 -0.0498,0.1696 -0.092,0.181 -0.092,0.1811 -0.10064,0.1436 -0.10064,0.1437 -0.15553,0.1678 -0.15554,0.1678 -0.15167,0.1354 -0.15169,0.1354 -0.22246,0.1647 -0.22246,0.1647 -0.22246,0.1389 -0.22246,0.1388 -0.18714,0.1039 -0.18715,0.1038 -0.34546,0.1706 -0.34548,0.1707 -0.29657,0.1301 -0.29656,0.1301 -0.47526,0.1865 -0.47526,0.1864 -0.48537,0.1736 -0.48538,0.1735 -1.84037,0.6034 -1.84036,0.6036 -0.44197,0.1635 -0.44196,0.1635 -0.2861,0.1206 -0.28609,0.1208 -0.29239,0.1427 -0.29239,0.1428 -0.0785,0.077 -0.0785,0.077 -0.0382,0.083 -0.0382,0.083 -3.4e-4,0.1109 -3.4e-4,0.1108 0.052,0.1029 0.0519,0.1028 0.11491,0.1164 0.11492,0.1163 0.14157,0.1037 0.14157,0.1036 0.30336,0.1773 0.30336,0.1772 0.5157,0.2787 0.51571,0.2787 0.19132,0.117 0.19132,0.1171 0.19576,0.1455 0.19576,0.1455 0.13393,0.1428 0.13392,0.1427 0.0727,0.1452 0.0728,0.1453 0.0103,0.1269 0.0103,0.1269 -0.0725,0.2136 -0.0725,0.2137 -0.10176,0.2009 -0.10177,0.2009 -0.0735,0.1139 -0.0735,0.1139 -0.13603,0.16 -0.13604,0.16 -0.13946,0.112 -0.13947,0.112 -0.12027,0.076 -0.12027,0.076 -0.18309,0.085 -0.18308,0.085 -0.24392,0.08 -0.24393,0.08 -0.42346,0.1012 -0.42347,0.1013 -0.38425,0.092 -0.38425,0.092 -0.34381,0.1095 -0.3438,0.1096 -0.29965,0.1266 -0.29965,0.1267 -0.22617,0.1222 -0.22617,0.1221 -0.28313,0.1864 -0.28314,0.1863 -0.14148,0.1124 -0.14146,0.1125 -0.19413,0.168 -0.19414,0.1681 -0.15228,0.1572 -0.15229,0.1574 -0.0554,0.093 -0.0554,0.093 -0.0191,0.084 -0.0192,0.084 0.0242,0.085 0.0241,0.085 0.0789,0.089 0.0789,0.089 0.12563,0.082 0.12564,0.082 0.37929,0.188 0.37929,0.1879 0.11903,0.079 0.11902,0.079 0.0706,0.081 0.0706,0.081 0.0247,0.087 0.0247,0.087 -0.0147,0.066 -0.0147,0.067 -0.0462,0.089 -0.0463,0.09 -0.0724,0.083 -0.0724,0.083 -0.20753,0.1387 -0.20754,0.1388 -0.22535,0.1313 -0.22535,0.1314 -0.27013,0.1398 -0.27014,0.1399 -0.28313,0.1236 -0.28314,0.1236 -0.28075,0.1081 -0.28077,0.1082 -0.27305,0.091 -0.27306,0.089 -0.32592,0.09 -0.32593,0.089 -0.3438,0.068 -0.3438,0.067 -0.2528,0.033 -0.2528,0.033 -0.4247,0.01 -0.4247,0.01 -0.20052,-0.029 z m 1.1207,-11.4241 0.091,-0.047 0.12134,-0.08 0.12135,-0.08 0.12851,-0.1209 0.12851,-0.121 0.0501,-0.098 0.0502,-0.098 -0.0122,-0.065 -0.0123,-0.065 -0.035,-0.031 -0.035,-0.031 -0.0525,-0.019 -0.0524,-0.019 -0.41265,-0.073 -0.41266,-0.073 -1.07186,-0.2095 -1.07187,-0.2095 -0.81906,-0.1691 -0.81906,-0.1693 -0.77862,-0.1701 -0.77862,-0.1703 -0.4677,-0.1171 -0.4677,-0.1169 -0.15924,-0.053 -0.15924,-0.053 -0.11901,0.01 -0.119,0.01 -0.0255,0.034 -0.0255,0.034 0.0105,0.04 0.0105,0.04 0.10072,0.087 0.10073,0.087 0.209,0.1228 0.209,0.1229 0.3703,0.1769 0.37031,0.1768 0.46007,0.1911 0.46008,0.191 0.43988,0.1629 0.43989,0.1628 0.4117,0.1374 0.41171,0.1374 0.28602,0.088 0.28601,0.088 0.37414,0.1004 0.37414,0.1003 0.32359,0.07 0.32357,0.07 0.26291,0.04 0.26291,0.04 h 0.31347 0.31347 z m 0.35867,-14.7275 1.7642,-1.1008 h 0.0113 0.0113 l 1.13333,0.5905 1.13334,0.5905 0.006,-0.01 0.006,-0.01 0.26488,-1.5778 0.26486,-1.5779 v -0.014 -0.014 l 1.36867,1.0808 1.36866,1.0808 0.0468,-0.058 0.0468,-0.058 0.0428,-0.1197 0.0427,-0.1198 0.0103,-0.2594 0.0103,-0.2595 -0.0342,-0.1792 -0.0342,-0.1791 -0.059,-0.1502 -0.059,-0.1501 -0.0795,-0.1176 -0.0795,-0.1177 -2.7058,-2.7129 -2.70582,-2.7128 -0.21335,-0.2031 -0.21334,-0.203 -0.18171,-0.1222 -0.18173,-0.1223 -0.18921,-0.093 -0.1892,-0.094 -0.20893,-0.069 -0.20892,-0.069 -0.19847,-0.044 -0.19848,-0.044 h -0.46514 -0.46515 l -0.20522,0.044 -0.20524,0.044 -0.20765,0.071 -0.20765,0.071 -0.1635,0.081 -0.1635,0.081 -0.14157,0.09 -0.14157,0.091 -0.14156,0.115 -0.14157,0.115 -1.9725,1.9528 -1.97251,1.9527 -0.45602,0.4691 -0.45602,0.469 -0.35266,0.3707 -0.35267,0.3706 -0.0931,0.1083 -0.0931,0.1084 -0.0949,0.1397 -0.0949,0.1396 -0.0773,0.1597 -0.0774,0.1597 -0.0508,0.1596 -0.0508,0.1598 -0.0229,0.1895 -0.0229,0.1896 0.0213,0.1497 0.0213,0.1497 0.0226,0.07 0.0226,0.07 0.0575,0.1134 0.0575,0.1135 0.10138,0.1 0.10137,0.1001 0.12654,0.059 0.12653,0.059 0.10718,0.022 0.10716,0.022 h 1.58152 1.58152 l 0.96871,-1.6566 0.96871,-1.6566 0.0141,-0.01 0.0141,-0.01 0.56134,2.2295 0.56133,2.2296 0.041,0.1651 0.041,0.1651 0.0632,-0.037 0.0632,-0.037 1.76422,-1.1007 z m -10.76602,21.8525 -0.14375,-0.035 -0.14949,-0.07 -0.14949,-0.07 -0.12569,-0.094 -0.12569,-0.094 -0.12371,-0.1332 -0.12371,-0.1332 -0.0681,-0.1202 -0.0681,-0.1202 -0.0314,-0.1188 -0.0314,-0.1188 2.4e-4,-0.091 2.4e-4,-0.09 0.0271,-0.1 0.0271,-0.1 0.0531,-0.1031 0.0531,-0.1032 0.10058,-0.1193 0.10058,-0.1192 0.17502,-0.1296 0.17502,-0.1297 0.19509,-0.1 0.1951,-0.1 0.19704,-0.072 0.19704,-0.072 0.20743,-0.05 0.20744,-0.05 0.22856,-0.03 0.22855,-0.029 h 0.21637 0.21637 l 0.18201,0.022 0.18203,0.022 0.17189,0.048 0.1719,0.048 0.18811,0.093 0.1881,0.092 0.15244,0.1405 0.15244,0.1405 -0.0114,0.057 -0.0115,0.056 -0.0929,0.183 -0.0929,0.1829 -0.0921,0.1409 -0.092,0.1408 -0.12671,0.1597 -0.12671,0.1596 -0.19934,0.1907 -0.19935,0.1906 -0.091,0.071 -0.091,0.071 -0.15167,0.1 -0.15168,0.1 -0.15168,0.076 -0.15168,0.075 -0.13146,0.049 -0.13145,0.049 -0.17191,0.038 -0.1719,0.038 h -0.23257 -0.23257 l -0.14375,-0.035 z m 22.56188,-0.4285 -0.11123,-0.026 -0.0809,-0.026 -0.0809,-0.026 -0.14146,-0.072 -0.14144,-0.072 -0.13359,-0.1243 -0.13359,-0.1244 -0.0618,-0.1151 -0.0618,-0.1152 -0.0323,-0.1084 -0.0323,-0.1084 v -0.1319 -0.1319 l 0.0311,-0.1189 0.0311,-0.1189 0.0604,-0.1281 0.0604,-0.128 0.0735,-0.1015 0.0735,-0.1015 0.10703,-0.1208 0.10704,-0.1209 0.05,-0.027 0.0499,-0.027 0.14822,0.035 0.1482,0.035 0.1719,0.059 0.17191,0.059 0.16179,0.08 0.16179,0.08 0.091,0.061 0.091,0.06 0.12875,0.1015 0.12875,0.1015 0.11005,0.1298 0.11005,0.1297 0.0898,0.1795 0.0898,0.1796 0.0244,0.1449 0.0244,0.1448 -0.0243,0.1146 -0.0243,0.1147 -0.0359,0.05 -0.0359,0.05 -0.19164,0.094 -0.19163,0.094 -0.1618,0.043 -0.16179,0.043 -0.27302,0.01 -0.27302,0.01 z m 2.33585,-2.967 -0.20223,-0.017 -0.2528,-0.032 -0.2528,-0.032 -0.25734,-0.049 -0.25736,-0.049 -0.2078,-0.061 -0.2078,-0.061 -0.14156,-0.067 -0.14157,-0.067 -0.0648,-0.063 -0.0648,-0.063 -0.0125,-0.039 -0.0125,-0.039 0.0346,-0.1043 0.0346,-0.1044 0.0707,-0.1397 0.0707,-0.1397 0.079,-0.1151 0.079,-0.1149 0.12398,-0.1307 0.12397,-0.1309 0.17341,-0.1286 0.17342,-0.1286 0.21408,-0.1076 0.21409,-0.1075 0.22724,-0.072 0.22725,-0.073 0.23617,-0.042 0.23616,-0.042 h 0.34381 0.3438 l 0.1618,0.025 0.16178,0.025 0.22832,0.059 0.22831,0.059 0.18179,0.077 0.18179,0.078 0.17477,0.1068 0.17478,0.1068 0.19662,0.1896 0.19664,0.1896 0.0975,0.1497 0.0974,0.1496 0.0662,0.1497 0.0662,0.1497 -0.0126,0.07 -0.0126,0.07 -0.0358,0.07 -0.0358,0.07 -0.1041,0.096 -0.10411,0.096 -0.16578,0.077 -0.16577,0.077 -0.19545,0.053 -0.19545,0.053 -0.2697,0.042 -0.26969,0.042 -0.68762,0.01 -0.6876,0.01 -0.20224,-0.017 z"
       id="path24070" />
    <path
       id="text4-36-7"
       style="-inkscape-font-specification:'Linux Libertine O';font-variation-settings:normal;display:inline;opacity:1;vector-effect:none;fill:#06263f;fill-opacity:1;stroke-width:7.63494;stroke-linecap:round;stroke-linejoin:round;stroke-miterlimit:4;stroke-dasharray:none;stroke-dashoffset:0;stroke-opacity:1;-inkscape-stroke:none;stop-color:#000000;stop-opacity:1"
       d="m 429.64158,1033.5836 c -0.19289,0 -0.52062,0.078 -0.96418,0.29 -1.17631,0.5399 -2.4875,1.0027 -4.16523,1.697 0,0.3277 0.15436,0.6355 0.42424,0.8283 1.04136,-0.4434 1.73553,-0.4813 2.00551,-0.4813 0.25069,0 0.36715,0.078 0.36715,1.0413 v 6.035 c 0,1.6006 -0.92635,1.6776 -1.98697,1.7356 -0.19289,0.1162 -0.19289,0.5399 0,0.6555 0,0 2.4883,-0.039 3.25968,-0.039 0.77137,0 1.63826,0.023 3.21957,0.039 0.19289,-0.1163 0.19289,-0.54 0,-0.6555 -1.06062,-0.057 -1.98542,-0.1346 -1.98542,-1.7356 v -6.9607 c 0,-1.0219 0.15436,-2.1211 0.15436,-2.1211 0,-0.2505 -0.15505,-0.3285 -0.3286,-0.3285 z m 13.40279,0 c -1.48486,1.7549 -3.5481,5.0915 -5.1294,7.4634 -0.0579,0.077 -0.13567,0.1915 -0.13567,0.2499 0,0.077 0.15436,0.2323 0.26998,0.4444 l 0.29002,0.347 c 0.0964,0.096 0.17419,0.1345 0.63713,0.1345 h 3.41239 v 0.7713 c 0,1.6006 -0.73196,1.6777 -1.79258,1.7356 -0.19289,0.1163 -0.19289,0.5399 0,0.6555 0,0 2.23686,-0.039 3.00822,-0.039 0.77137,0 1.38837,0.023 2.96965,0.039 0.19289,-0.1163 0.19289,-0.5399 0,-0.6555 -1.06062,-0.057 -1.79412,-0.1345 -1.79412,-1.7356 v -0.7713 h 1.61979 c 0.26998,0 0.56,-0.3657 0.56,-0.5969 0,-0.1938 -0.078,-0.3087 -0.29002,-0.3087 h -1.88977 v -7.7334 z m -0.65562,2.1026 v 5.6307 h -3.54817 c 0.9642,-1.6005 2.52611,-4.2422 3.54817,-5.6307 z m -7.36631,7.1734 c -0.77135,0 -1.42697,0.6163 -1.42697,1.3685 0,0.7328 0.61704,1.3112 1.38842,1.3112 0.77135,0 1.42697,-0.617 1.42697,-1.35 0,-0.7519 -0.61704,-1.3297 -1.38842,-1.3297 z"
       inkscape:label="Version Number"
       sodipodi:nodetypes="scccsssccsccsscsccsccscsccsccscssscccccccsssss" />
    <path
       id="path168"
       style="display:inline;fill:#06263f;fill-opacity:1;stroke-width:7.63495;stroke-linecap:round;stroke-linejoin:round"
       d="m 448.03752,1006.517 c -0.009,-4e-4 -0.0181,-3e-4 -0.0269,0 l -6.32593,1.4956 c -0.20547,0.049 -0.39579,0.1475 -0.55408,0.2872 l -1.58709,1.4523 c -0.12698,0.1122 -0.16291,0.2963 -0.0871,0.4479 l 1.10829,2.2221 c 0.0756,0.1513 0.24314,0.2321 0.40894,0.1982 l 2.11899,-0.3867 c 0.2068,-0.042 0.4003,-0.1351 0.5628,-0.2699 l 5.0014,-4.1513 c 0.0281,-0.024 0.0358,-0.063 0.0197,-0.096 l -0.21187,-0.4262 -5.57967,2.7817 c 0.0996,0.3441 -0.0145,0.6806 -0.27489,0.8111 -0.3089,0.1542 -0.71488,-0.031 -0.90571,-0.4133 -0.19072,-0.3826 -0.0947,-0.8172 0.21436,-0.971 0.26121,-0.1289 0.59846,-0.018 0.81297,0.2687 l 5.58033,-2.7824 -0.21191,-0.425 c -0.0125,-0.025 -0.0362,-0.041 -0.0623,-0.044 z m -31.38013,2.1621 c -0.7463,0.014 -1.52656,0.2298 -2.10842,0.6585 -0.65417,0.4821 -1.00229,1.0249 -1.21942,1.7377 -0.0378,-0.11 -0.13357,-0.1947 -0.25701,-0.2106 -0.14575,-0.019 -0.2806,0.066 -0.33237,0.1958 -0.19153,0.046 -0.51039,0.054 -0.87665,-0.1532 -0.56136,-0.3174 -1.30613,-0.6271 -1.61973,-0.69 -0.8133,-0.1633 -2.93088,0.4369 -2.03554,0.396 0.76627,-0.035 2.07727,0.082 2.24126,0.3008 -1.0658,-0.1776 -1.78694,-0.1765 -2.63846,0.077 -1.15243,0.3435 -2.69032,1.5619 -2.82694,2.2178 -0.13666,0.6557 0.1361,-0.273 1.96693,-0.519 1.83087,-0.2459 2.51426,-0.082 3.11546,0.1372 0.60119,0.2186 2.14213,-0.9723 2.49388,-0.9155 0.0313,0 0.059,0 0.0853,0 0.0326,0.1191 0.13277,0.2124 0.2632,0.2291 0.0968,0.013 0.18859,-0.02 0.25451,-0.082 0.0125,0.4904 0.14876,1.0362 0.35886,1.4573 0.18469,0.37 0.54512,0.7404 0.69002,0.8852 0.0145,-0.01 0.0241,-0.013 0.0257,-0.014 0.18051,-0.1401 0.37337,-0.2859 0.48622,-0.4719 0.11492,-0.1896 0.16637,-0.4154 0.0435,-0.7784 -0.14671,-0.4327 -0.048,-0.8758 0.25576,-1.1323 0.27132,-0.229 0.71965,-0.2121 1.19604,-0.036 0.56482,-0.6781 0.8719,-1.0859 1.52897,-1.351 0,0 0,0 0,0 0.48004,-0.1894 0.94494,-0.1386 1.27751,-0.1229 0.16632,0.01 0.30057,0 0.37071,-0.022 0.0701,-0.024 0.088,-0.035 0.10684,-0.1365 0.007,-0.026 -0.0177,-0.098 -0.0584,-0.1822 -0.53592,-0.8319 -1.49284,-1.366 -2.28198,-1.4517 -0.16588,-0.018 -0.33627,-0.025 -0.5085,-0.022 z m 21.93384,1.7377 c -0.0571,4e-4 -0.1148,0.012 -0.16987,0.036 -2.32145,0.9974 -14.12922,6.0822 -17.63665,7.8244 -2.39316,1.1888 -4.76075,2.3897 -7.12778,3.5922 l 0.79879,0.4837 1.82364,0.3719 c 0.009,0 0.0189,0 0.0277,0.01 0.4239,0.122 0.70912,0.4663 0.80868,0.8358 0.0996,0.3696 0.0493,0.768 -0.11488,1.1249 -0.16423,0.357 -0.454,0.6794 -0.85996,0.8451 -0.40589,0.1657 -0.91391,0.1577 -1.44738,-0.079 -0.007,0 -0.008,0 -0.0125,-0.01 -0.69026,-0.3373 -1.12006,-0.9229 -1.63584,-1.1235 -0.01,0 -0.0201,-0.01 -0.0298,-0.013 l -2.10773,-1.0539 c -9.18591,4.7144 -18.20529,9.5946 -27.18737,14.9216 -0.60216,0.3572 -1.36545,0.8521 -0.98159,1.6248 0.38386,0.7727 1.24012,0.4636 1.88851,0.1994 12.56673,-5.1177 24.5731,-10.7496 36.67558,-16.7347 l 0.56827,-0.2885 c -0.009,0.01 -0.007,0.01 0.008,-0.041 0.0169,-0.06 0.0293,-0.1469 0.0571,-0.2545 0.0169,-0.065 0.0233,-0.1199 0.0265,-0.1835 -0.009,-0.254 -0.17304,-0.5403 -0.17485,-0.5436 -0.75449,-1.0605 -0.039,-2.4263 1.04836,-2.4215 v 0 c 0,-2e-4 0,0 0,0 0.49677,0 1.01138,0.3043 1.40292,0.9013 0.231,0.3522 0.25592,0.7767 0.16062,1.2546 4.38818,-2.3074 13.3951,-7.4011 15.37063,-8.5224 0.20741,-0.1178 0.28932,-0.3862 0.18289,-0.6005 l -0.94522,-1.9026 c -0.0798,-0.1608 -0.24788,-0.2551 -0.42004,-0.2527 z m -19.98845,0.3676 c -0.23888,0 -0.49138,0.021 -0.74011,0.1186 -0.60718,0.2455 -0.84839,0.5825 -1.44677,1.2991 -0.0461,0.055 -0.12332,0.07 -0.18719,0.038 -0.47421,-0.2274 -0.80811,-0.1657 -1.00446,0 -0.1964,0.1657 -0.27783,0.4597 -0.1644,0.7944 0.14611,0.431 0.0859,0.7809 -0.0704,1.0385 -0.13771,0.2269 -0.33265,0.3835 -0.50043,0.5133 0.0783,0.1207 0.16436,0.2358 0.25826,0.3447 -0.47547,0.091 -0.9236,0.2491 -1.32691,0.4707 l -6.10482,2.9417 c -1.15412,0.5438 -1.15331,2.1862 0,2.728 l 5.85517,2.9257 c 0.64368,0.2504 1.08895,0.8547 1.6643,1.136 1.85583,0.8238 2.59775,-1.7091 1.37145,-2.0621 l -1.88421,-0.3836 -4.42758,-2.6785 1.06508,-0.2589 v 0 l 0.312,-0.076 2.55441,-0.6209 c 0.6219,-0.1666 0.93578,-0.3976 1.15154,-0.6468 0.0642,-0.073 0.17525,-0.081 0.24897,-0.017 0.0742,0.064 0.0826,0.176 0.0189,0.2501 -0.25906,0.2992 -0.65365,0.5756 -1.32763,0.7562 0,3e-4 0,2e-4 -0.007,0 l -2.69839,0.6554 -0.0461,0.3144 2.17212,1.314 c 2.1868,-1.1336 4.34602,-2.2546 6.6218,-3.3871 l -0.39041,-0.9625 v 0.01 c -0.22537,-0.8337 -0.70883,-1.4667 -1.48326,-1.9026 1.15777,-0.5031 1.90744,-1.6442 1.90897,-2.9065 -0.0273,-0.6276 -0.2396,-1.233 -0.611,-1.7396 -0.11689,0.02 -0.23989,0.015 -0.37132,0.01 -0.12983,-0.01 -0.26818,-0.015 -0.41144,-0.016 z m 4.23419,9.1093 c -0.79344,-0.01 -1.38756,0.9995 -0.75369,1.8736 0,0 0.22686,0.3468 0.23538,0.737 -0.007,0.092 -0.0149,0.1779 -0.0394,0.2724 -0.0382,0.1483 -0.0532,0.3846 -0.18723,0.4923 l -0.80249,0.4077 c 0.71238,0.3394 1.71724,0.248 2.21843,-0.496 0.20202,-0.4038 0.19728,-0.4794 0.32007,-0.7981 0.29178,-0.7746 0.35862,-1.3816 0.11854,-1.7476 -0.34632,-0.528 -0.74883,-0.7386 -1.10946,-0.7413 z m -1.87247,3.5563 v 4e-4 4e-4 0 4e-4 4e-4 c 0,3e-4 0,3e-4 0,0 z m -2.70209,1.7056 c -3.07768,1.5071 -6.15547,3.0079 -9.23933,4.4638 l -0.01,0.013 -0.0408,0.015 -4.17363,3.5551 1.39364,0.08 -5.72852,7.4105 h 6.62679 l 0.0603,-0.661 -3.27852,-0.509 c 0,0 3.42929,-3.2575 7.03577,-5.968 l 5.66307,0.3268 -5.02551,5.4868 h 6.39571 v -0.5851 l -3.12711,-0.5874 5.83234,-4.079 -2.75398,-7.5859 z" />
  </g>
</svg>
