<?xml version="1.0" encoding="UTF-8" standalone="no"?>
<svg
   inkscape:export-ydpi="96"
   inkscape:export-xdpi="96"
   inkscape:export-filename="header.png"
   inkscape:output_extension="org.inkscape.output.svg.inkscape"
   sodipodi:docname="header.svg"
   inkscape:version="1.3.2 (1:1.3.2+202311252150+091e20ef0f)"
   version="1.1"
   id="svg2"
   height="57"
   width="150"
   xmlns:inkscape="http://www.inkscape.org/namespaces/inkscape"
   xmlns:sodipodi="http://sodipodi.sourceforge.net/DTD/sodipodi-0.dtd"
   xmlns="http://www.w3.org/2000/svg"
   xmlns:svg="http://www.w3.org/2000/svg"
   xmlns:rdf="http://www.w3.org/1999/02/22-rdf-syntax-ns#"
   xmlns:cc="http://creativecommons.org/ns#"
   xmlns:dc="http://purl.org/dc/elements/1.1/">
  <defs
     id="defs4" />
  <sodipodi:namedview
     inkscape:snap-bbox-midpoints="true"
     inkscape:snap-bbox="true"
     inkscape:snap-center="true"
     inkscape:document-rotation="0"
     inkscape:window-maximized="1"
     inkscape:window-y="0"
     inkscape:window-x="0"
     inkscape:window-height="1295"
     inkscape:window-width="2560"
     showgrid="false"
     inkscape:current-layer="layer1"
     inkscape:document-units="px"
     inkscape:cy="72.301669"
     inkscape:cx="-5.1265242"
     inkscape:zoom="2.8284271"
     inkscape:pageshadow="2"
     inkscape:pageopacity="0.0"
     borderopacity="1.0"
     bordercolor="#666666"
     pagecolor="#ffffff"
     id="base"
     inkscape:showpageshadow="2"
     inkscape:pagecheckerboard="0"
     inkscape:deskcolor="#d1d1d1" />
  <metadata
     id="metadata7">
    <rdf:RDF>
      <cc:Work
         rdf:about="">
        <dc:format>image/svg+xml</dc:format>
        <dc:type
           rdf:resource="http://purl.org/dc/dcmitype/StillImage" />
        <dc:title />
      </cc:Work>
    </rdf:RDF>
  </metadata>
  <g
     transform="translate(0,-995.36218)"
     id="layer1"
     inkscape:groupmode="layer"
     inkscape:label="Layer 1">
    <rect
       y="995.36218"
       x="0"
       height="57"
       width="150"
       id="rect8549"
       style="fill:#ffffff;fill-opacity:1;stroke:none" />
    <path
       style="font-variation-settings:normal;vector-effect:none;fill:#06263f;fill-opacity:1;stroke-width:7.63495;stroke-linecap:round;stroke-linejoin:round;stroke-miterlimit:4;stroke-dasharray:none;stroke-dashoffset:0;stroke-opacity:1;-inkscape-stroke:none;stop-color:#000000"
       d="m 94.140688,1043.4268 -0.217652,-0.032 -0.199448,-0.055 -0.199438,-0.055 -0.184696,-0.089 -0.184697,-0.089 -0.168653,-0.1649 -0.168663,-0.1652 -0.06893,-0.1407 -0.06893,-0.1409 -0.06578,-0.2878 -0.06578,-0.2878 -0.05807,-0.1671 -0.05807,-0.1672 -0.07446,-0.1559 -0.07447,-0.1559 -0.113521,-0.1676 -0.113509,-0.1673 -0.157125,-0.1536 -0.157115,-0.1535 -0.151523,-0.1 -0.151524,-0.1 -0.153663,-0.076 -0.153673,-0.076 -0.195008,-0.068 -0.195009,-0.068 -0.255015,-0.063 -0.255036,-0.063 -0.493932,-0.09 -0.493942,-0.089 -0.230505,-0.053 -0.230504,-0.053 -0.175622,-0.057 -0.175621,-0.058 -0.142319,-0.063 -0.142298,-0.063 -0.179127,-0.1176 -0.179128,-0.1176 -0.115605,-0.1248 -0.115616,-0.1246 -0.06057,-0.1264 -0.06057,-0.1262 -0.01465,-0.1053 -0.01465,-0.1053 0.02562,-0.126 0.02562,-0.1261 0.07501,-0.1516 0.07501,-0.1517 0.141982,-0.1866 0.141994,-0.1867 0.390419,-0.4052 0.390419,-0.4052 0.189136,-0.2175 0.189125,-0.2174 0.08716,-0.1439 0.08716,-0.1439 0.04635,-0.1227 0.04646,-0.1227 0.01433,-0.1064 0.01433,-0.1064 -0.03593,-0.1385 -0.03604,-0.1387 -0.06697,-0.1032 -0.06708,-0.1031 -0.135306,-0.1236 -0.135296,-0.1237 -0.183427,-0.1181 -0.183415,-0.1179 -0.288567,-0.1449 -0.288568,-0.1449 -0.326147,-0.1353 -0.326158,-0.1355 -0.409263,-0.1526 -0.409263,-0.1527 -1.997707,-0.6555 -1.997708,-0.6553 -0.482968,-0.179 -0.482957,-0.179 -0.351255,-0.15 -0.351243,-0.15 -0.252453,-0.1306 -0.252464,-0.1306 -0.186488,-0.1223 -0.186487,-0.1222 -0.134471,-0.1327 -0.134471,-0.1327 -0.03799,-0.1128 -0.03799,-0.1128 0.01498,-0.08 0.01498,-0.08 0.05742,-0.1042 0.05742,-0.1042 0.132778,-0.1213 0.132756,-0.1214 0.175621,-0.1129 0.175633,-0.1126 0.243367,-0.132 0.243357,-0.132 0.814108,-0.3778 0.81412,-0.3777 0.248718,-0.1352 0.248719,-0.1351 0.183524,-0.12 0.183525,-0.12 0.131029,-0.1274 0.131041,-0.1272 0.05286,-0.1122 0.05286,-0.1123 2.17e-4,-0.082 2.17e-4,-0.082 -0.03354,-0.079 -0.03354,-0.079 -0.05319,-0.07 -0.05319,-0.07 -0.236996,-0.102 -0.237017,-0.1021 -0.259965,-0.096 -0.259954,-0.095 -0.398625,-0.1192 -0.398625,-0.1194 -0.702487,-0.171 -0.702488,-0.1711 -0.816474,-0.1866 -0.816464,-0.1866 -0.404281,-0.1064 -0.404281,-0.1064 -0.326928,-0.1 -0.326918,-0.1 -0.318321,-0.1202 -0.31832,-0.12 -0.266955,-0.129 -0.266966,-0.1289 -0.23146,-0.1487 -0.231459,-0.1487 -0.190309,-0.1802 -0.190319,-0.1801 -0.09552,-0.1319 -0.09552,-0.132 -0.07674,-0.1606 -0.07675,-0.1605 -0.03571,-0.13 -0.03571,-0.13 -0.01129,-0.2707 -0.01129,-0.2708 0.03625,-0.2057 0.03626,-0.2058 0.09107,-0.2709 0.09107,-0.2708 0.182146,-0.3599 0.182146,-0.3598 0.284127,-0.4201 0.284117,-0.4201 0.188528,-0.2383 0.188529,-0.2382 7.654359,-7.7302 7.65436,-7.73 0.199264,-0.1582 0.199275,-0.1581 0.187095,-0.1204 0.187096,-0.1204 0.214721,-0.1089 0.21471,-0.1088 0.22346,-0.086 0.223459,-0.086 0.197527,-0.056 0.197527,-0.057 0.296372,-0.056 0.296361,-0.056 0.484933,-0.011 0.484933,-0.011 0.294385,0.037 0.294397,0.037 0.333398,0.083 0.333409,0.084 0.255253,0.099 0.255243,0.098 0.237669,0.1201 0.237657,0.1199 0.227422,0.1493 0.227421,0.1494 0.173989,0.137 0.174,0.137 7.87885,7.9462 7.87884,7.9463 0.25373,0.2643 0.25371,0.2644 0.18574,0.2275 0.18573,0.2275 0.16529,0.2458 0.16529,0.2459 0.12753,0.249 0.12752,0.249 0.0786,0.2417 0.0786,0.2418 0.0326,0.2167 0.0326,0.2165 2.3e-4,0.123 2.2e-4,0.123 -0.0236,0.1671 -0.0235,0.167 -0.0541,0.1841 -0.0541,0.1841 -0.0999,0.1965 -0.0999,0.1966 -0.10924,0.1558 -0.10925,0.156 -0.16883,0.1822 -0.16883,0.1821 -0.16464,0.147 -0.16466,0.147 -0.24148,0.1787 -0.24147,0.1788 -0.24148,0.1508 -0.24148,0.1507 -0.20314,0.1127 -0.20315,0.1127 -0.37499,0.1852 -0.37502,0.1853 -0.32193,0.1412 -0.32191,0.1412 -0.51589,0.2025 -0.51589,0.2023 -0.52687,0.1885 -0.52687,0.1883 -1.99771,0.655 -1.9977,0.6552 -0.47975,0.1775 -0.47975,0.1774 -0.31056,0.1309 -0.31054,0.1312 -0.31739,0.1549 -0.31739,0.155 -0.0852,0.084 -0.0852,0.084 -0.0415,0.09 -0.0415,0.09 -3.7e-4,0.1204 -3.7e-4,0.1203 0.0564,0.1117 0.0563,0.1116 0.12474,0.1263 0.12474,0.1263 0.15367,0.1125 0.15368,0.1125 0.32929,0.1925 0.3293,0.1923 0.55979,0.3025 0.5598,0.3026 0.20767,0.127 0.20768,0.1271 0.21249,0.1579 0.2125,0.158 0.14538,0.155 0.14537,0.1549 0.0789,0.1576 0.079,0.1577 0.0112,0.1377 0.0112,0.1378 -0.0787,0.2319 -0.0787,0.2319 -0.11046,0.2181 -0.11047,0.2181 -0.0798,0.1236 -0.0798,0.1236 -0.14766,0.1737 -0.14767,0.1737 -0.15139,0.1216 -0.15139,0.1216 -0.13055,0.082 -0.13056,0.082 -0.19874,0.092 -0.19873,0.092 -0.26477,0.087 -0.26479,0.087 -0.45966,0.1098 -0.45967,0.11 -0.4171,0.1 -0.4171,0.1 -0.37321,0.1189 -0.37319,0.1189 -0.32527,0.1375 -0.32527,0.1375 -0.2455,0.1326 -0.24551,0.1326 -0.30733,0.2023 -0.30735,0.2022 -0.15357,0.1221 -0.15356,0.1221 -0.21072,0.1823 -0.21074,0.1825 -0.1653,0.1706 -0.16531,0.1709 -0.0601,0.1009 -0.0601,0.101 -0.0207,0.091 -0.0208,0.091 0.0263,0.092 0.0262,0.092 0.0857,0.097 0.0856,0.097 0.13637,0.089 0.13638,0.089 0.41172,0.2041 0.41172,0.204 0.1292,0.086 0.1292,0.086 0.0766,0.088 0.0766,0.088 0.0268,0.095 0.0268,0.094 -0.016,0.072 -0.016,0.073 -0.0502,0.097 -0.0503,0.098 -0.0786,0.09 -0.0786,0.09 -0.22527,0.1505 -0.22528,0.1507 -0.24462,0.1425 -0.24461,0.1427 -0.29323,0.1517 -0.29323,0.1519 -0.30734,0.1341 -0.30734,0.1342 -0.30476,0.1173 -0.304767,0.1175 -0.296394,0.099 -0.296404,0.097 -0.353784,0.098 -0.353795,0.097 -0.373192,0.074 -0.373192,0.073 -0.274413,0.036 -0.274412,0.036 -0.461009,0.011 -0.461008,0.011 -0.217663,-0.032 z m 1.216512,-12.4008 0.09878,-0.051 0.131714,-0.087 0.131725,-0.087 0.139496,-0.1312 0.139497,-0.1314 0.05438,-0.1064 0.05449,-0.1063 -0.01324,-0.071 -0.01335,-0.071 -0.03799,-0.034 -0.03799,-0.034 -0.05699,-0.021 -0.05688,-0.021 -0.447928,-0.079 -0.447939,-0.079 -1.163496,-0.2274 -1.163507,-0.2274 -0.889083,-0.1836 -0.889083,-0.1837 -0.845186,-0.1847 -0.845186,-0.1848 -0.507685,-0.1272 -0.507685,-0.1268 -0.172854,-0.058 -0.172853,-0.058 -0.129185,0.011 -0.129173,0.011 -0.02768,0.037 -0.02768,0.037 0.0114,0.043 0.0114,0.043 0.109331,0.094 0.109341,0.094 0.226868,0.1333 0.226868,0.1334 0.401958,0.1921 0.401969,0.1919 0.499402,0.2074 0.499413,0.2073 0.477487,0.1769 0.477497,0.1767 0.446897,0.1491 0.446908,0.1492 0.310473,0.095 0.310461,0.096 0.406126,0.109 0.406126,0.1089 0.351255,0.076 0.351233,0.076 0.285386,0.043 0.285387,0.043 h 0.340269 0.34027 z m 0.389333,-15.9866 1.915026,-1.1949 h 0.01227 0.01227 l 1.230221,0.641 1.23023,0.641 0.007,-0.011 0.007,-0.011 0.28752,-1.7127 0.28751,-1.7128 v -0.015 -0.015 l 1.48568,1.1732 1.48567,1.1732 0.0508,-0.063 0.0508,-0.063 0.0465,-0.13 0.0464,-0.13 0.0112,-0.2816 0.0112,-0.2817 -0.0371,-0.1945 -0.0371,-0.1944 -0.064,-0.1631 -0.064,-0.1629 -0.0863,-0.1276 -0.0863,-0.1278 -2.93712,-2.9448 -2.937151,-2.9448 -0.23159,-0.2204 -0.231579,-0.2204 -0.197245,-0.1326 -0.197266,-0.1328 -0.205386,-0.1009 -0.205375,-0.1021 -0.226792,-0.075 -0.226781,-0.075 -0.215438,-0.048 -0.215449,-0.048 h -0.504905 -0.504917 l -0.222765,0.048 -0.222786,0.048 -0.225403,0.077 -0.225402,0.077 -0.177478,0.088 -0.177478,0.088 -0.153673,0.098 -0.153674,0.099 -0.153662,0.1248 -0.153673,0.1249 -2.141134,2.1197 -2.141144,2.1196 -0.495006,0.5093 -0.495006,0.5091 -0.38281,0.4023 -0.382821,0.4023 -0.101059,0.1176 -0.101059,0.1177 -0.103014,0.1516 -0.103013,0.1515 -0.08391,0.1734 -0.08402,0.1733 -0.05514,0.1733 -0.05514,0.1734 -0.02486,0.2057 -0.02486,0.2059 0.02312,0.1625 0.02312,0.1624 0.02453,0.076 0.02453,0.076 0.06242,0.1231 0.06242,0.1232 0.110047,0.1086 0.110036,0.1086 0.137359,0.064 0.137347,0.064 0.116343,0.024 0.116321,0.024 h 1.716728 1.716728 l 1.051527,-1.7983 1.051527,-1.7982 0.01531,-0.011 0.01531,-0.011 0.609331,2.4201 0.609319,2.4202 0.04451,0.1792 0.04451,0.1793 0.0686,-0.04 0.0686,-0.04 1.915047,-1.1948 z m -11.686432,23.7207 -0.156039,-0.038 -0.16227,-0.076 -0.162271,-0.076 -0.136435,-0.1021 -0.136436,-0.102 -0.134286,-0.1446 -0.134286,-0.1446 -0.07392,-0.1305 -0.07392,-0.1304 -0.03409,-0.129 -0.03408,-0.1289 2.6e-4,-0.099 2.61e-4,-0.098 0.02942,-0.1086 0.02942,-0.1085 0.05764,-0.1119 0.05764,-0.1121 0.109179,-0.1295 0.109178,-0.1293 0.189983,-0.1407 0.189983,-0.1408 0.211769,-0.1086 0.211779,-0.1085 0.213886,-0.078 0.213885,-0.078 0.225164,-0.054 0.225174,-0.054 0.2481,-0.033 0.24809,-0.032 h 0.234868 0.234868 l 0.19757,0.024 0.197592,0.024 0.186586,0.052 0.186596,0.052 0.204192,0.1009 0.204181,0.1 0.165472,0.1525 0.165473,0.1525 -0.01237,0.062 -0.01248,0.061 -0.100842,0.1986 -0.100843,0.1985 -0.09997,0.153 -0.09987,0.1528 -0.137542,0.1734 -0.137543,0.1732 -0.216382,0.207 -0.216393,0.2069 -0.09878,0.077 -0.09878,0.077 -0.164636,0.1085 -0.164648,0.1085 -0.164647,0.082 -0.164648,0.082 -0.142699,0.053 -0.142688,0.053 -0.186607,0.041 -0.186596,0.041 h -0.25247 -0.252453 l -0.156039,-0.038 z m 24.490749,-0.4651 -0.12074,-0.028 -0.0878,-0.028 -0.0878,-0.028 -0.15356,-0.078 -0.15353,-0.078 -0.14501,-0.1349 -0.14501,-0.135 -0.0671,-0.125 -0.0671,-0.125 -0.0351,-0.1177 -0.0351,-0.1177 v -0.1431 -0.1432 l 0.0338,-0.1291 0.0338,-0.1291 0.0656,-0.139 0.0656,-0.1389 0.0798,-0.1102 0.0798,-0.1102 0.11618,-0.1311 0.11619,-0.1313 0.0543,-0.029 0.0542,-0.029 0.1609,0.038 0.16087,0.038 0.18659,0.064 0.18661,0.064 0.17562,0.087 0.17562,0.087 0.0988,0.066 0.0988,0.065 0.13976,0.1102 0.13976,0.1102 0.11945,0.1409 0.11946,0.1408 0.0975,0.1948 0.0975,0.195 0.0265,0.1572 0.0265,0.1572 -0.0264,0.1244 -0.0264,0.1245 -0.039,0.054 -0.039,0.054 -0.20803,0.102 -0.20801,0.102 -0.17563,0.047 -0.17563,0.047 -0.29636,0.011 -0.29636,0.011 z m 2.53555,-3.2207 -0.21952,-0.018 -0.27442,-0.035 -0.27441,-0.035 -0.27934,-0.053 -0.27936,-0.053 -0.22557,-0.066 -0.22556,-0.066 -0.15366,-0.073 -0.15368,-0.073 -0.0703,-0.068 -0.0703,-0.068 -0.0136,-0.042 -0.0136,-0.042 0.0375,-0.1132 0.0376,-0.1133 0.0768,-0.1517 0.0767,-0.1516 0.0857,-0.125 0.0858,-0.1247 0.13458,-0.1419 0.13457,-0.142 0.18823,-0.1396 0.18825,-0.1396 0.23238,-0.1168 0.23239,-0.1167 0.24667,-0.078 0.24668,-0.079 0.25636,-0.046 0.25635,-0.046 h 0.3732 0.37319 l 0.17564,0.027 0.17561,0.027 0.24784,0.064 0.24783,0.064 0.19733,0.083 0.19733,0.085 0.18971,0.1159 0.18972,0.116 0.21343,0.2058 0.21345,0.2058 0.10584,0.1625 0.10573,0.1624 0.0719,0.1625 0.0719,0.1625 -0.0137,0.076 -0.0137,0.076 -0.0389,0.076 -0.0389,0.076 -0.113,0.1042 -0.11301,0.1042 -0.17995,0.084 -0.17995,0.084 -0.21216,0.057 -0.21215,0.058 -0.29276,0.045 -0.29275,0.046 -0.7464,0.011 -0.74639,0.011 -0.21953,-0.018 z"
       id="path24070-6" />
    <path
       id="text4-36-7"
       style="-inkscape-font-specification:'Linux Libertine O';font-variation-settings:normal;display:inline;vector-effect:none;fill:#06263f;fill-opacity:1;stroke-width:7.63494;stroke-linecap:round;stroke-linejoin:round;stroke-miterlimit:4;stroke-dasharray:none;stroke-dashoffset:0;stroke-opacity:1;-inkscape-stroke:none;stop-color:#000000"
       d="m 57.947379,1034.1225 c -0.20938,0 -0.565129,0.085 -1.04661,0.3148 -1.276875,0.586 -2.700162,1.0884 -4.521325,1.842 0,0.3558 0.167557,0.6899 0.460509,0.8992 1.130389,-0.4814 1.883905,-0.5225 2.176966,-0.5225 0.272122,0 0.398538,0.085 0.398538,1.1303 v 6.551 c 0,1.7374 -1.005545,1.821 -2.15684,1.884 -0.209381,0.1261 -0.209381,0.586 0,0.7115 0,0 2.70103,-0.042 3.538357,-0.042 0.837317,0 1.778319,0.025 3.494819,0.042 0.20938,-0.1262 0.20938,-0.5862 0,-0.7115 -1.151295,-0.062 -2.155158,-0.1461 -2.155158,-1.884 v -7.5558 c 0,-1.1093 0.167556,-2.3024 0.167556,-2.3024 0,-0.272 -0.168305,-0.3566 -0.356692,-0.3566 z m 14.548625,0 c -1.611804,1.9049 -3.851435,5.5268 -5.567924,8.1014 -0.06285,0.084 -0.147268,0.2079 -0.147268,0.2713 0,0.084 0.167556,0.2522 0.293061,0.4824 l 0.314814,0.3767 c 0.104642,0.1042 0.189082,0.146 0.6916,0.146 h 3.704123 v 0.8372 c 0,1.7374 -0.794537,1.8211 -1.945832,1.884 -0.20938,0.1262 -0.20938,0.586 0,0.7115 0,0 2.428095,-0.042 3.2654,-0.042 0.837316,0 1.507065,0.025 3.223532,0.042 0.209381,-0.1262 0.209381,-0.586 0,-0.7115 -1.151295,-0.062 -1.947503,-0.146 -1.947503,-1.884 v -0.8372 h 1.758269 c 0.293061,0 0.607876,-0.397 0.607876,-0.648 0,-0.2103 -0.08467,-0.3351 -0.314815,-0.3351 h -2.05133 v -8.3945 z m -0.71167,2.2823 v 6.1121 h -3.851511 c 1.046631,-1.7373 2.742073,-4.6049 3.851511,-6.1121 z m -7.996073,7.7867 c -0.837294,0 -1.548965,0.669 -1.548965,1.4855 0,0.7954 0.669792,1.4233 1.507119,1.4233 0.837295,0 1.548965,-0.6698 1.548965,-1.4654 0,-0.8162 -0.669792,-1.4434 -1.507119,-1.4434 z"
       inkscape:label="Version Number"
       sodipodi:nodetypes="scccsssccsccsscsccsccscsccsccscssscccccccsssss" />
    <path
       id="path168"
       style="display:inline;fill:#06263f;fill-opacity:1;stroke-width:7.63495;stroke-linecap:round;stroke-linejoin:round"
       d="m 77.91603,1004.7419 c -0.0098,-5e-4 -0.01965,-3e-4 -0.0292,0 l -6.866749,1.6234 c -0.223036,0.053 -0.429627,0.1602 -0.601449,0.3118 l -1.722774,1.5765 c -0.137836,0.1218 -0.176838,0.3216 -0.09455,0.4862 l 1.203041,2.412 c 0.08206,0.1643 0.263926,0.252 0.443901,0.2152 l 2.300147,-0.4198 c 0.22448,-0.046 0.434523,-0.1466 0.610915,-0.293 l 5.428981,-4.5062 c 0.0305,-0.026 0.03886,-0.068 0.02139,-0.1042 l -0.229984,-0.4626 -6.056688,3.0195 c 0.108115,0.3735 -0.01574,0.7388 -0.298391,0.8804 -0.335309,0.1674 -0.775997,-0.034 -0.983142,-0.4486 -0.207025,-0.4153 -0.102796,-0.8871 0.232686,-1.054 0.283542,-0.1399 0.649624,-0.02 0.882473,0.2917 l 6.057405,-3.0203 -0.230026,-0.4613 c -0.01357,-0.027 -0.03929,-0.044 -0.06763,-0.048 z m -34.062889,2.3469 c -0.810103,0.015 -1.657069,0.2495 -2.288674,0.7148 -0.710096,0.5233 -1.087978,1.1125 -1.323671,1.8863 -0.04103,-0.1194 -0.144989,-0.2114 -0.278982,-0.2286 -0.158211,-0.021 -0.304589,0.072 -0.360785,0.2125 -0.207905,0.05 -0.554025,0.059 -0.951597,-0.1663 -0.609352,-0.3445 -1.417794,-0.6807 -1.758205,-0.749 -0.88283,-0.1772 -3.181447,0.4743 -2.209563,0.4299 0.831781,-0.038 2.254861,0.089 2.432871,0.3265 -1.156918,-0.1928 -1.93971,-0.1916 -2.864028,0.084 -1.250954,0.3729 -2.920322,1.6954 -3.068622,2.4074 -0.148343,0.7117 0.147736,-0.2964 2.135088,-0.5634 1.987395,-0.2669 2.72921,-0.089 3.381808,0.1489 0.652587,0.2373 2.325265,-1.0554 2.707087,-0.9937 0.03398,0 0.06404,0 0.09259,0 0.03539,0.1293 0.14412,0.2305 0.285701,0.2487 0.105076,0.014 0.204713,-0.022 0.276269,-0.089 0.01357,0.5323 0.161478,1.1247 0.38954,1.5818 0.200479,0.4017 0.591723,0.8037 0.749011,0.9609 0.01574,-0.011 0.02616,-0.014 0.0279,-0.015 0.195942,-0.1521 0.40529,-0.3103 0.527788,-0.5122 0.124745,-0.2058 0.180593,-0.4509 0.04722,-0.845 -0.159253,-0.4697 -0.0521,-0.9506 0.277626,-1.2291 0.294515,-0.2485 0.781174,-0.2302 1.298292,-0.039 0.613108,-0.7361 0.946441,-1.1788 1.659685,-1.4665 0,0 0,0 0,0 0.52108,-0.2056 1.025725,-0.1505 1.386727,-0.1335 0.180539,0.011 0.326267,0 0.402403,-0.024 0.07609,-0.026 0.09552,-0.038 0.115974,-0.1482 0.0076,-0.028 -0.01921,-0.1064 -0.06339,-0.1978 -0.581737,-0.903 -1.620466,-1.4828 -2.477071,-1.5758 -0.180062,-0.019 -0.365019,-0.027 -0.551973,-0.024 z m 23.809014,1.8863 c -0.06198,4e-4 -0.124614,0.013 -0.184392,0.039 -2.519916,1.0826 -15.33716,6.6021 -19.144448,8.4933 -2.597757,1.2904 -5.167758,2.594 -7.73715,3.8993 l 0.86708,0.525 1.979547,0.4037 c 0.0098,0 0.02052,0 0.03007,0.011 0.460141,0.1324 0.769745,0.5062 0.877816,0.9073 0.108115,0.4011 0.05351,0.8336 -0.124701,1.221 -0.178271,0.3875 -0.492814,0.7375 -0.93348,0.9174 -0.440591,0.1798 -0.992042,0.1712 -1.57112,-0.086 -0.0076,0 -0.0087,0 -0.01357,-0.011 -0.749271,-0.3662 -1.215816,-1.0018 -1.775691,-1.2196 -0.01086,0 -0.02182,-0.011 -0.03235,-0.014 l -2.287925,-1.144 c -9.971234,5.1174 -19.761702,10.4149 -29.51168,16.1973 -0.65364,0.3877 -1.4821855,0.9249 -1.0655084,1.7637 0.4166771,0.8387 1.3461404,0.5032 2.0499624,0.2164 13.641089,-5.5552 26.673911,-11.6686 39.81106,-18.1654 l 0.616853,-0.3131 c -0.0098,0.011 -0.0076,0.011 0.0087,-0.045 0.01834,-0.065 0.0318,-0.1595 0.06198,-0.2763 0.01835,-0.07 0.02529,-0.1301 0.02877,-0.1992 -0.0098,-0.2757 -0.187834,-0.5865 -0.189799,-0.59 -0.818993,-1.1512 -0.04233,-2.6338 1.137987,-2.6286 v 0 c 0,-2e-4 0,0 0,0 0.53924,0 1.097845,0.3304 1.522859,0.9784 0.250749,0.3823 0.277799,0.8431 0.174352,1.3619 4.763335,-2.5047 14.540278,-8.0339 16.6847,-9.251 0.225142,-0.1279 0.314055,-0.4193 0.198526,-0.6519 l -1.026029,-2.0652 c -0.08662,-0.1746 -0.269072,-0.277 -0.45595,-0.2743 z m -21.697308,0.399 c -0.259303,0 -0.533389,0.023 -0.803384,0.1288 -0.659089,0.2664 -0.920921,0.6323 -1.570458,1.4101 -0.05004,0.06 -0.133863,0.076 -0.203193,0.041 -0.514751,-0.2469 -0.877197,-0.1799 -1.090334,0 -0.21319,0.1798 -0.301582,0.499 -0.178455,0.8623 0.158602,0.4678 0.09324,0.8476 -0.07642,1.1273 -0.149483,0.2463 -0.361089,0.4162 -0.543213,0.5571 0.08499,0.1311 0.178411,0.256 0.280339,0.3742 -0.516119,0.099 -1.002561,0.2704 -1.44035,0.511 l -6.626736,3.1931 c -1.252788,0.5903 -1.251909,2.3732 0,2.9613 l 6.355742,3.1758 c 0.69871,0.2718 1.182047,0.9278 1.806585,1.2331 2.014489,0.8942 2.819838,-1.8552 1.488699,-2.2384 l -2.045296,-0.4164 -4.806104,-2.9075 1.156136,-0.281 v 0 l 0.338674,-0.082 2.772792,-0.674 c 0.675068,-0.1808 1.015782,-0.4316 1.249988,-0.7021 0.06969,-0.079 0.190233,-0.088 0.270255,-0.018 0.08054,0.069 0.08966,0.191 0.02052,0.2715 -0.281208,0.3247 -0.709532,0.6248 -1.441132,0.8208 0,3e-4 0,2e-4 -0.0076,0 l -2.929081,0.7114 -0.05004,0.3413 2.357819,1.4264 c 2.373755,-1.2306 4.717571,-2.4474 7.187913,-3.6767 l -0.423787,-1.0448 v 0.011 c -0.244637,-0.9049 -0.769429,-1.592 -1.610067,-2.0652 1.25675,-0.5461 2.070511,-1.7848 2.072172,-3.155 -0.02963,-0.6812 -0.260084,-1.3384 -0.663236,-1.8883 -0.126883,0.022 -0.260399,0.016 -0.403065,0.011 -0.140929,-0.011 -0.291107,-0.016 -0.446615,-0.017 z m 4.59618,9.8881 c -0.861273,-0.011 -1.506185,1.0849 -0.818124,2.0338 0,0 0.246254,0.3764 0.255503,0.8 -0.0076,0.1 -0.01617,0.1931 -0.04277,0.2957 -0.04147,0.1609 -0.05775,0.4174 -0.203236,0.5343 l -0.871097,0.4426 c 0.773283,0.3684 1.864051,0.2692 2.408089,-0.5384 0.219291,-0.4383 0.214146,-0.5204 0.347433,-0.8663 0.316725,-0.8409 0.389279,-1.4997 0.128674,-1.897 -0.375927,-0.5732 -0.812849,-0.8018 -1.20431,-0.8047 z m -2.032551,3.8603 v 5e-4 4e-4 0 4e-4 5e-4 c 0,3e-4 0,3e-4 0,0 z m -2.933098,1.8514 c -3.340798,1.636 -6.681716,3.2651 -10.029222,4.8455 l -0.01085,0.014 -0.04429,0.016 -4.530443,3.859 1.512785,0.087 -6.218264,8.0441 h 7.19333 l 0.06546,-0.7175 -3.558808,-0.5526 c 0,0 3.722467,-3.5359 7.637274,-6.4782 l 6.147219,0.3548 -5.455153,5.9558 h 6.942494 v -0.6351 l -3.394454,-0.6376 6.33096,-4.4277 -2.989424,-8.2345 z" />
  </g>
</svg>
